<svg data-v-423bf9ae="" xmlns="http://www.w3.org/2000/svg" viewBox="0 0 504 90" class="iconLeft"><!----><!----><!----><g data-v-423bf9ae="" id="9fe46ed0-68e0-47ba-a948-167721268170" fill="#193655" transform="matrix(5.410279456668789,0,0,5.410279456668789,239.64795650694515,0.4463474751451244)"><path d="M3.10 13.64L1.41 13.64L1.41 3.63L7.50 3.63L7.27 4.83L3.10 4.83L3.10 7.85L6.79 7.85L6.58 9.02L3.10 9.02L3.10 13.64ZM9.30 13.64L9.30 2.69L10.96 2.69L10.96 13.64L9.30 13.64ZM19.17 12.15L19.17 12.98L19.17 12.98Q18.87 13.19 18.52 13.34L18.52 13.34L18.52 13.34Q18.17 13.49 17.80 13.59L17.80 13.59L17.80 13.59Q17.43 13.69 17.07 13.74L17.07 13.74L17.07 13.74Q16.70 13.78 16.37 13.78L16.37 13.78L16.37 13.78Q15.61 13.78 14.96 13.55L14.96 13.55L14.96 13.55Q14.31 13.32 13.83 12.87L13.83 12.87L13.83 12.87Q13.34 12.41 13.07 11.75L13.07 11.75L13.07 11.75Q12.80 11.09 12.80 10.24L12.80 10.24L12.80 10.24Q12.80 9.33 13.10 8.59L13.10 8.59L13.10 8.59Q13.41 7.85 13.93 7.34L13.93 7.34L13.93 7.34Q14.44 6.82 15.12 6.54L15.12 6.54L15.12 6.54Q15.80 6.26 16.54 6.26L16.54 6.26L16.54 6.26Q17.16 6.26 17.69 6.46L17.69 6.46L17.69 6.46Q18.22 6.67 18.60 7.06L18.60 7.06L18.60 7.06Q18.99 7.46 19.21 8.05L19.21 8.05L19.21 8.05Q19.43 8.65 19.43 9.43L19.43 9.43L19.43 9.43Q19.43 9.63 19.41 9.84L19.41 9.84L19.41 9.84Q19.39 10.06 19.35 10.26L19.35 10.26L14.51 10.26L14.51 10.26Q14.51 10.81 14.71 11.24L14.71 11.24L14.71 11.24Q14.90 11.66 15.26 11.95L15.26 11.95L15.26 11.95Q15.61 12.23 16.11 12.38L16.11 12.38L16.11 12.38Q16.61 12.52 17.21 12.52L17.21 12.52L17.21 12.52Q17.38 12.52 17.61 12.51L17.61 12.51L17.61 12.51Q17.84 12.50 18.10 12.46L18.10 12.46L18.10 12.46Q18.36 12.41 18.63 12.34L18.63 12.34L18.63 12.34Q18.91 12.27 19.17 12.15L19.17 12.15ZM14.51 9.45L17.89 9.45L17.89 9.45Q17.89 8.96 17.76 8.58L17.76 8.58L17.76 8.58Q17.64 8.20 17.42 7.95L17.42 7.95L17.42 7.95Q17.20 7.70 16.91 7.57L16.91 7.57L16.91 7.57Q16.62 7.44 16.28 7.44L16.28 7.44L16.28 7.44Q15.91 7.44 15.59 7.59L15.59 7.59L15.59 7.59Q15.26 7.75 15.03 8.02L15.03 8.02L15.03 8.02Q14.79 8.29 14.65 8.65L14.65 8.65L14.65 8.65Q14.51 9.02 14.51 9.45L14.51 9.45ZM27.25 12.15L27.25 12.98L27.25 12.98Q26.95 13.19 26.60 13.34L26.60 13.34L26.60 13.34Q26.25 13.49 25.88 13.59L25.88 13.59L25.88 13.59Q25.51 13.69 25.15 13.74L25.15 13.74L25.15 13.74Q24.78 13.78 24.45 13.78L24.45 13.78L24.45 13.78Q23.69 13.78 23.04 13.55L23.04 13.55L23.04 13.55Q22.39 13.32 21.91 12.87L21.91 12.87L21.91 12.87Q21.42 12.41 21.15 11.75L21.15 11.75L21.15 11.75Q20.88 11.09 20.88 10.24L20.88 10.24L20.88 10.24Q20.88 9.33 21.18 8.59L21.18 8.59L21.18 8.59Q21.49 7.85 22.01 7.34L22.01 7.34L22.01 7.34Q22.52 6.82 23.20 6.54L23.20 6.54L23.20 6.54Q23.88 6.26 24.62 6.26L24.62 6.26L24.62 6.26Q25.24 6.26 25.77 6.46L25.77 6.46L25.77 6.46Q26.30 6.67 26.68 7.06L26.68 7.06L26.68 7.06Q27.07 7.46 27.29 8.05L27.29 8.05L27.29 8.05Q27.51 8.65 27.51 9.43L27.51 9.43L27.51 9.43Q27.51 9.63 27.49 9.84L27.49 9.84L27.49 9.84Q27.47 10.06 27.43 10.26L27.43 10.26L22.59 10.26L22.59 10.26Q22.59 10.81 22.79 11.24L22.79 11.24L22.79 11.24Q22.98 11.66 23.34 11.95L23.34 11.95L23.34 11.95Q23.69 12.23 24.19 12.38L24.19 12.38L24.19 12.38Q24.69 12.52 25.29 12.52L25.29 12.52L25.29 12.52Q25.46 12.52 25.69 12.51L25.69 12.51L25.69 12.51Q25.92 12.50 26.18 12.46L26.18 12.46L26.18 12.46Q26.44 12.41 26.71 12.34L26.71 12.34L26.71 12.34Q26.99 12.27 27.25 12.15L27.25 12.15ZM22.59 9.45L25.97 9.45L25.97 9.45Q25.97 8.96 25.84 8.58L25.84 8.58L25.84 8.58Q25.72 8.20 25.50 7.95L25.50 7.95L25.50 7.95Q25.28 7.70 24.99 7.57L24.99 7.57L24.99 7.57Q24.70 7.44 24.36 7.44L24.36 7.44L24.36 7.44Q23.99 7.44 23.67 7.59L23.67 7.59L23.67 7.59Q23.34 7.75 23.11 8.02L23.11 8.02L23.11 8.02Q22.87 8.29 22.73 8.65L22.73 8.65L22.73 8.65Q22.59 9.02 22.59 9.45L22.59 9.45ZM30.02 11.64L30.02 7.58L28.56 7.58L28.68 6.80L28.68 6.80Q29.22 6.67 29.55 6.49L29.55 6.49L29.55 6.49Q29.87 6.32 30.09 6.07L30.09 6.07L30.09 6.07Q30.30 5.82 30.46 5.47L30.46 5.47L30.46 5.47Q30.63 5.11 30.84 4.59L30.84 4.59L31.63 4.59L31.63 6.40L34.23 6.40L33.94 7.58L31.68 7.58L31.68 11.31L31.68 11.31Q31.68 11.65 31.77 11.88L31.77 11.88L31.77 11.88Q31.87 12.11 32.05 12.25L32.05 12.25L32.05 12.25Q32.22 12.39 32.47 12.46L32.47 12.46L32.47 12.46Q32.72 12.52 33.04 12.52L33.04 12.52L33.04 12.52Q33.34 12.52 33.64 12.47L33.64 12.47L33.64 12.47Q33.93 12.41 34.20 12.31L34.20 12.31L34.20 13.15L34.20 13.15Q33.74 13.46 33.21 13.62L33.21 13.62L33.21 13.62Q32.68 13.78 32.14 13.78L32.14 13.78L32.14 13.78Q31.10 13.78 30.56 13.22L30.56 13.22L30.56 13.22Q30.02 12.66 30.02 11.64L30.02 11.64ZM41.83 12.15L41.83 12.98L41.83 12.98Q41.53 13.19 41.18 13.34L41.18 13.34L41.18 13.34Q40.83 13.49 40.46 13.59L40.46 13.59L40.46 13.59Q40.09 13.69 39.73 13.74L39.73 13.74L39.73 13.74Q39.36 13.78 39.03 13.78L39.03 13.78L39.03 13.78Q38.27 13.78 37.62 13.55L37.62 13.55L37.62 13.55Q36.97 13.32 36.49 12.87L36.49 12.87L36.49 12.87Q36.00 12.41 35.73 11.75L35.73 11.75L35.73 11.75Q35.46 11.09 35.46 10.24L35.46 10.24L35.46 10.24Q35.46 9.33 35.77 8.59L35.77 8.59L35.77 8.59Q36.07 7.85 36.59 7.34L36.59 7.34L36.59 7.34Q37.11 6.82 37.79 6.54L37.79 6.54L37.79 6.54Q38.47 6.26 39.20 6.26L39.20 6.26L39.20 6.26Q39.82 6.26 40.35 6.46L40.35 6.46L40.35 6.46Q40.88 6.67 41.27 7.06L41.27 7.06L41.27 7.06Q41.65 7.46 41.87 8.05L41.87 8.05L41.87 8.05Q42.09 8.65 42.09 9.43L42.09 9.43L42.09 9.43Q42.09 9.63 42.07 9.84L42.07 9.84L42.07 9.84Q42.05 10.06 42.01 10.26L42.01 10.26L37.17 10.26L37.17 10.26Q37.17 10.81 37.37 11.24L37.37 11.24L37.37 11.24Q37.56 11.66 37.92 11.95L37.92 11.95L37.92 11.95Q38.27 12.23 38.77 12.38L38.77 12.38L38.77 12.38Q39.27 12.52 39.87 12.52L39.87 12.52L39.87 12.52Q40.04 12.52 40.27 12.51L40.27 12.51L40.27 12.51Q40.50 12.50 40.76 12.46L40.76 12.46L40.76 12.46Q41.02 12.41 41.30 12.34L41.30 12.34L41.30 12.34Q41.57 12.27 41.83 12.15L41.83 12.15ZM37.17 9.45L40.55 9.45L40.55 9.45Q40.55 8.96 40.42 8.58L40.42 8.58L40.42 8.58Q40.30 8.20 40.08 7.95L40.08 7.95L40.08 7.95Q39.86 7.70 39.57 7.57L39.57 7.57L39.57 7.57Q39.28 7.44 38.94 7.44L38.94 7.44L38.94 7.44Q38.57 7.44 38.25 7.59L38.25 7.59L38.25 7.59Q37.93 7.75 37.69 8.02L37.69 8.02L37.69 8.02Q37.45 8.29 37.31 8.65L37.31 8.65L37.31 8.65Q37.17 9.02 37.17 9.45L37.17 9.45ZM43.98 13.64L43.98 6.40L45.32 6.40L45.55 8.56L45.55 8.56Q45.65 8.38 45.75 8.19L45.75 8.19L45.75 8.19Q45.86 8.00 45.96 7.83L45.96 7.83L45.96 7.83Q46.06 7.66 46.15 7.51L46.15 7.51L46.15 7.51Q46.24 7.37 46.30 7.27L46.30 7.27L46.30 7.27Q46.44 7.06 46.62 6.87L46.62 6.87L46.62 6.87Q46.81 6.69 47.02 6.55L47.02 6.55L47.02 6.55Q47.23 6.42 47.48 6.34L47.48 6.34L47.48 6.34Q47.72 6.26 48.01 6.26L48.01 6.26L48.01 6.26Q48.21 6.26 48.41 6.31L48.41 6.31L48.41 6.31Q48.60 6.36 48.74 6.46L48.74 6.46L48.56 7.98L48.56 7.98Q48.44 7.95 48.28 7.94L48.28 7.94L48.28 7.94Q48.11 7.93 47.98 7.93L47.98 7.93L47.98 7.93Q47.54 7.93 47.20 8.06L47.20 8.06L47.20 8.06Q46.86 8.18 46.58 8.40L46.58 8.40L46.58 8.40Q46.31 8.63 46.08 8.93L46.08 8.93L46.08 8.93Q45.85 9.23 45.64 9.58L45.64 9.58L45.64 13.64L43.98 13.64Z"></path></g><defs data-v-423bf9ae=""><linearGradient data-v-423bf9ae="" gradientTransform="rotate(25)" id="556c83c8-aa57-4a34-adc2-64d296057f89" x1="0%" y1="0%" x2="100%" y2="0%"><stop data-v-423bf9ae="" offset="0%" style="stop-color: rgb(81, 164, 251); stop-opacity: 1;"></stop><stop data-v-423bf9ae="" offset="100%" style="stop-color: rgb(81, 164, 251); stop-opacity: 1;"></stop></linearGradient></defs><g data-v-423bf9ae="" id="91d9f859-d4df-43e3-8761-e2fb5d7972f8" transform="matrix(2.2727702720797605,0,0,2.2727702720797605,0.36179697212432416,-71.68505842219439)" stroke="none" fill="url(#556c83c8-aa57-4a34-adc2-64d296057f89)"><path d="M77.836 64.906a6.662 6.662 0 0 0 6.664 6.659 6.663 6.663 0 0 0 6.663-6.659 6.664 6.664 0 0 0-13.327 0zM12.854 64.786a6.776 6.776 0 0 0 6.78 6.779 6.78 6.78 0 1 0-6.78-6.779z"></path><path d="M98.224 52.795s-8.016-5.602-16.607-6.826c-1.646-.238-19.311-10.955-25.433-11.661-6.123-.704-44.744-4.828-47.217-.117-2.472 4.711-6.71 8.126-6.595 11.539.117 3.414 0 8.6 0 8.6s-2.238.348-2.238 1.881c0 1.532-.471 4.473.353 5.177.825.712 8.714 3.89 8.714 3.89h2.057c-.046-4.371 2.746-8.777 8.383-8.777s8.429 4.406 8.383 8.777h48.024c-.097-4.407 2.692-8.891 8.378-8.891 5.714 0 8.5 4.526 8.376 8.955.909.245 4.315 1.07 5.536.053 1.417-1.174 2.946-6.593-.114-12.6z"></path></g><!----></svg>