<svg data-v-423bf9ae="" xmlns="http://www.w3.org/2000/svg" viewBox="0 0 151.51762510179944 60" class="icon"><!----><!----><!----><!----><g data-v-423bf9ae="" id="c5fe302e-825e-4c8f-a4b1-e949f21c4dc0" transform="matrix(1.515180181386507,0,0,1.515180181386507,0.000019145984481383493,-48.43387338009573)" stroke="none" fill="black"><path d="M77.836 64.906a6.662 6.662 0 0 0 6.664 6.659 6.663 6.663 0 0 0 6.663-6.659 6.664 6.664 0 0 0-13.327 0zM12.854 64.786a6.776 6.776 0 0 0 6.78 6.779 6.78 6.78 0 1 0-6.78-6.779z"></path><path d="M98.224 52.795s-8.016-5.602-16.607-6.826c-1.646-.238-19.311-10.955-25.433-11.661-6.123-.704-44.744-4.828-47.217-.117-2.472 4.711-6.71 8.126-6.595 11.539.117 3.414 0 8.6 0 8.6s-2.238.348-2.238 1.881c0 1.532-.471 4.473.353 5.177.825.712 8.714 3.89 8.714 3.89h2.057c-.046-4.371 2.746-8.777 8.383-8.777s8.429 4.406 8.383 8.777h48.024c-.097-4.407 2.692-8.891 8.378-8.891 5.714 0 8.5 4.526 8.376 8.955.909.245 4.315 1.07 5.536.053 1.417-1.174 2.946-6.593-.114-12.6z"></path></g><!----></svg>