<svg data-v-423bf9ae="" xmlns="http://www.w3.org/2000/svg" viewBox="0 0 340.7393146959268 178" class="iconAbove"><!----><!----><!----><g data-v-423bf9ae="" id="0afb4771-81a4-4351-881f-6ddf02c12d9a" fill="white" transform="matrix(5.8365760270947415,0,0,5.8365760270947415,-5.486384015110303,116.8665853501503)"><path d="M8.04 2.12L2.95 2.12L2.95 5.10L7.88 5.10L7.88 6.66L2.95 6.66L2.95 10.19L0.94 10.19L0.94 0.56L8.04 0.56L8.04 2.12ZM11.45 10.19L9.53 10.19L9.53 0.05L11.45 0.05L11.45 10.19ZM16.45 10.33L16.45 10.33L16.45 10.33Q15.65 10.33 15.01 10.09L15.01 10.09L15.01 10.09Q14.37 9.86 13.92 9.38L13.92 9.38L13.92 9.38Q13.47 8.89 13.23 8.17L13.23 8.17L13.23 8.17Q12.99 7.44 12.99 6.46L12.99 6.46L12.99 6.46Q12.99 5.40 13.27 4.68L13.27 4.68L13.27 4.68Q13.56 3.95 14.04 3.50L14.04 3.50L14.04 3.50Q14.52 3.06 15.15 2.86L15.15 2.86L15.15 2.86Q15.78 2.66 16.47 2.66L16.47 2.66L16.47 2.66Q17.35 2.66 17.97 2.96L17.97 2.96L17.97 2.96Q18.59 3.27 18.98 3.81L18.98 3.81L18.98 3.81Q19.38 4.36 19.56 5.12L19.56 5.12L19.56 5.12Q19.75 5.89 19.75 6.81L19.75 6.81L19.75 6.86L15.00 6.86L15.00 6.86Q15.00 7.33 15.09 7.73L15.09 7.73L15.09 7.73Q15.17 8.13 15.35 8.42L15.35 8.42L15.35 8.42Q15.54 8.71 15.83 8.88L15.83 8.88L15.83 8.88Q16.13 9.04 16.54 9.04L16.54 9.04L16.54 9.04Q17.05 9.04 17.37 8.83L17.37 8.83L17.37 8.83Q17.69 8.61 17.83 8.16L17.83 8.16L19.64 8.32L19.64 8.32Q19.52 8.63 19.29 8.99L19.29 8.99L19.29 8.99Q19.07 9.34 18.70 9.64L18.70 9.64L18.70 9.64Q18.33 9.94 17.78 10.13L17.78 10.13L17.78 10.13Q17.23 10.33 16.45 10.33ZM16.45 3.87L16.45 3.87L16.45 3.87Q16.15 3.87 15.90 3.97L15.90 3.97L15.90 3.97Q15.64 4.07 15.45 4.28L15.45 4.28L15.45 4.28Q15.26 4.50 15.15 4.84L15.15 4.84L15.15 4.84Q15.03 5.18 15.02 5.66L15.02 5.66L17.89 5.66L17.89 5.66Q17.83 4.76 17.46 4.32L17.46 4.32L17.46 4.32Q17.08 3.87 16.45 3.87ZM24.23 10.33L24.23 10.33L24.23 10.33Q23.43 10.33 22.79 10.09L22.79 10.09L22.79 10.09Q22.16 9.86 21.70 9.38L21.70 9.38L21.70 9.38Q21.25 8.89 21.01 8.17L21.01 8.17L21.01 8.17Q20.77 7.44 20.77 6.46L20.77 6.46L20.77 6.46Q20.77 5.40 21.06 4.68L21.06 4.68L21.06 4.68Q21.34 3.95 21.82 3.50L21.82 3.50L21.82 3.50Q22.31 3.06 22.93 2.86L22.93 2.86L22.93 2.86Q23.56 2.66 24.26 2.66L24.26 2.66L24.26 2.66Q25.14 2.66 25.75 2.96L25.75 2.96L25.75 2.96Q26.37 3.27 26.77 3.81L26.77 3.81L26.77 3.81Q27.17 4.36 27.35 5.12L27.35 5.12L27.35 5.12Q27.54 5.89 27.54 6.81L27.54 6.81L27.54 6.86L22.79 6.86L22.79 6.86Q22.79 7.33 22.87 7.73L22.87 7.73L22.87 7.73Q22.96 8.13 23.14 8.42L23.14 8.42L23.14 8.42Q23.32 8.71 23.62 8.88L23.62 8.88L23.62 8.88Q23.91 9.04 24.33 9.04L24.33 9.04L24.33 9.04Q24.83 9.04 25.16 8.83L25.16 8.83L25.16 8.83Q25.48 8.61 25.61 8.16L25.61 8.16L27.43 8.32L27.43 8.32Q27.30 8.63 27.08 8.99L27.08 8.99L27.08 8.99Q26.86 9.34 26.49 9.64L26.49 9.64L26.49 9.64Q26.12 9.94 25.57 10.13L25.57 10.13L25.57 10.13Q25.02 10.33 24.23 10.33ZM24.23 3.87L24.23 3.87L24.23 3.87Q23.94 3.87 23.68 3.97L23.68 3.97L23.68 3.97Q23.43 4.07 23.24 4.28L23.24 4.28L23.24 4.28Q23.05 4.50 22.93 4.84L22.93 4.84L22.93 4.84Q22.82 5.18 22.80 5.66L22.80 5.66L25.68 5.66L25.68 5.66Q25.62 4.76 25.25 4.32L25.25 4.32L25.25 4.32Q24.87 3.87 24.23 3.87ZM30.88 10.32L30.88 10.32L30.88 10.32Q30.04 10.32 29.58 9.85L29.58 9.85L29.58 9.85Q29.12 9.39 29.12 8.46L29.12 8.46L29.12 4.09L28.18 4.09L28.18 2.80L29.22 2.80L29.82 1.06L31.02 1.06L31.02 2.80L32.42 2.80L32.42 4.09L31.02 4.09L31.02 7.94L31.02 7.94Q31.02 8.48 31.23 8.73L31.23 8.73L31.23 8.73Q31.43 8.99 31.86 8.99L31.86 8.99L31.86 8.99Q32.04 8.99 32.18 8.96L32.18 8.96L32.18 8.96Q32.33 8.93 32.50 8.89L32.50 8.89L32.50 10.08L32.50 10.08Q32.15 10.20 31.75 10.26L31.75 10.26L31.75 10.26Q31.36 10.32 30.88 10.32ZM41.84 10.19L39.90 10.19L39.90 6.06L35.63 6.06L35.63 10.19L33.61 10.19L33.61 0.56L35.63 0.56L35.63 4.40L39.90 4.40L39.90 0.56L41.84 0.56L41.84 10.19ZM43.65 2.80L45.58 2.80L45.58 6.95L45.58 6.95Q45.58 7.38 45.64 7.73L45.64 7.73L45.64 7.73Q45.71 8.09 45.87 8.35L45.87 8.35L45.87 8.35Q46.03 8.61 46.28 8.75L46.28 8.75L46.28 8.75Q46.53 8.89 46.89 8.89L46.89 8.89L46.89 8.89Q47.24 8.89 47.52 8.74L47.52 8.74L47.52 8.74Q47.80 8.59 48.01 8.30L48.01 8.30L48.01 8.30Q48.21 8.02 48.33 7.63L48.33 7.63L48.33 7.63Q48.44 7.23 48.44 6.76L48.44 6.76L48.44 2.80L50.36 2.80L50.36 8.54L50.36 8.54Q50.36 8.77 50.36 9.03L50.36 9.03L50.36 9.03Q50.37 9.28 50.38 9.51L50.38 9.51L50.38 9.51Q50.39 9.74 50.40 9.92L50.40 9.92L50.40 9.92Q50.41 10.10 50.42 10.19L50.42 10.19L48.58 10.19L48.58 10.19Q48.58 10.11 48.56 9.93L48.56 9.93L48.56 9.93Q48.54 9.75 48.53 9.53L48.53 9.53L48.53 9.53Q48.52 9.31 48.51 9.09L48.51 9.09L48.51 9.09Q48.50 8.87 48.50 8.72L48.50 8.72L48.47 8.72L48.47 8.72Q48.08 9.56 47.49 9.95L47.49 9.95L47.49 9.95Q46.90 10.33 46.09 10.33L46.09 10.33L46.09 10.33Q45.42 10.33 44.96 10.11L44.96 10.11L44.96 10.11Q44.50 9.89 44.20 9.51L44.20 9.51L44.20 9.51Q43.91 9.13 43.78 8.61L43.78 8.61L43.78 8.61Q43.65 8.09 43.65 7.49L43.65 7.49L43.65 2.80ZM59.32 6.47L59.32 6.47L59.32 6.47Q59.32 7.31 59.15 8.02L59.15 8.02L59.15 8.02Q58.98 8.72 58.63 9.24L58.63 9.24L58.63 9.24Q58.28 9.75 57.75 10.04L57.75 10.04L57.75 10.04Q57.21 10.33 56.48 10.33L56.48 10.33L56.48 10.33Q56.15 10.33 55.82 10.26L55.82 10.26L55.82 10.26Q55.49 10.19 55.20 10.04L55.20 10.04L55.20 10.04Q54.91 9.88 54.66 9.63L54.66 9.63L54.66 9.63Q54.41 9.37 54.24 9.00L54.24 9.00L54.22 9.00L54.22 9.00Q54.22 9.15 54.21 9.33L54.21 9.33L54.21 9.33Q54.20 9.52 54.19 9.69L54.19 9.69L54.19 9.69Q54.17 9.86 54.16 10.00L54.16 10.00L54.16 10.00Q54.14 10.14 54.13 10.19L54.13 10.19L52.26 10.19L52.26 10.19Q52.28 9.95 52.30 9.51L52.30 9.51L52.30 9.51Q52.32 9.07 52.32 8.50L52.32 8.50L52.32 0.05L54.24 0.05L54.24 2.88L54.24 2.88Q54.24 3.10 54.23 3.31L54.23 3.31L54.23 3.31Q54.23 3.51 54.22 3.69L54.22 3.69L54.22 3.69Q54.22 3.90 54.21 4.08L54.21 4.08L54.24 4.08L54.24 4.08Q54.58 3.32 55.19 2.99L55.19 2.99L55.19 2.99Q55.80 2.66 56.60 2.66L56.60 2.66L56.60 2.66Q57.31 2.66 57.83 2.94L57.83 2.94L57.83 2.94Q58.34 3.23 58.67 3.74L58.67 3.74L58.67 3.74Q59.00 4.25 59.16 4.94L59.16 4.94L59.16 4.94Q59.32 5.64 59.32 6.47ZM57.31 6.47L57.31 6.47L57.31 6.47Q57.31 5.21 56.94 4.60L56.94 4.60L56.94 4.60Q56.57 3.99 55.80 3.99L55.80 3.99L55.80 3.99Q55.51 3.99 55.22 4.11L55.22 4.11L55.22 4.11Q54.93 4.22 54.71 4.52L54.71 4.52L54.71 4.52Q54.48 4.81 54.35 5.29L54.35 5.29L54.35 5.29Q54.21 5.78 54.21 6.53L54.21 6.53L54.21 6.53Q54.21 7.25 54.35 7.73L54.35 7.73L54.35 7.73Q54.48 8.21 54.70 8.50L54.70 8.50L54.70 8.50Q54.92 8.78 55.21 8.90L55.21 8.90L55.21 8.90Q55.49 9.02 55.79 9.02L55.79 9.02L55.79 9.02Q56.52 9.02 56.92 8.41L56.92 8.41L56.92 8.41Q57.31 7.81 57.31 6.47Z"></path></g><!----><g data-v-423bf9ae="" id="851a03b8-54f9-4251-b426-393604d886f7" transform="matrix(1.0757860819498697,0,0,1.0757860819498697,114.31436154063414,-1.193886297989465)" stroke="none" fill="white"><path d="M28.579 53.811c1.684-.416 2.827 1.016 3.67 3.152.069.163.797 1.859-.344 1.947-.521.041-1.114-.561-1.322-1.288-.134-.468-.078-.886.119-1.127-.783-1.438-1.289-1.642-1.832-1.505-.787.194-1.077-.986-.291-1.179zm45.767 0c.785.193.495 1.373-.293 1.181-.543-.136-1.048.065-1.832 1.505.197.242.256.659.121 1.127-.209.729-.803 1.329-1.322 1.288-1.142-.088-.414-1.784-.345-1.947.843-2.14 1.986-3.57 3.671-3.154zm-28.972 5.901a7.812 7.812 0 0 1 1.879-1.464c.704-.398 1.305.657.601 1.059a6.541 6.541 0 0 0-1.59 1.233c-.552.594-1.442-.235-.89-.828zm11.278.828a6.53 6.53 0 0 0-1.588-1.233c-.705-.4-.105-1.457.6-1.059.723.41 1.357.902 1.879 1.464.553.593-.337 1.422-.891.828zm4.674-5.563l2.229-.476c.793-.168 1.045 1.021.252 1.188l-2.229.476c-.791.168-1.044-1.02-.252-1.188zm3.486-1.393c-.803-.693-1.903-1.046-3.08-1.135a1.763 1.763 0 1 1-3.461.664 1.564 1.564 0 0 1-.02-.235 7.617 7.617 0 0 0-1.743.796c-.684.436-1.336-.589-.651-1.023 2.644-1.686 7.259-2.142 9.75.015.614.527-.181 1.447-.795.918zm-23.647 2.581l-2.229-.476c-.792-.168-.539-1.356.253-1.188l2.229.476c.793.168.54 1.356-.253 1.188zm-4.028-3.501c2.492-2.155 7.107-1.699 9.751-.014.682.435.031 1.459-.654 1.022a7.609 7.609 0 0 0-1.742-.796 1.765 1.765 0 1 1-3.481-.429c-1.175.089-2.278.44-3.081 1.135-.612.531-1.406-.389-.793-.918zm10.001 9.615s.074-.084.213-.187c.718-.524 1.591-.422 2.301.111.316.235.659.399 1.749.399 1.094 0 1.455-.164 1.77-.399.739-.556 1.872-.658 2.514.073.549.599-.348 1.42-.896.822-.313-.23-.622-.125-.89.075l-.084.062a.86.86 0 0 1-.099.088c-.251.191-.483.385-.723.556 1.164-.075 2.349.17 4.323 1.65 3.24 2.428 5.57 1.235 6.092.173.086-.178.406-.151.414.15.027 1.488-.68 2.875-2.355 3.53l-4.746-1.61c-1.648-.473-1.449.559-2.837.658-.757.029-1.67.104-2.575.198-1.875.197-3.742.5-4.228.767-1.565.854-.886 1.502-3.303 2.008-3.223.625-4.907-.895-5.291-2.889-.057-.297.253-.391.374-.233.729.932 3.258 1.614 5.922-1.435 2.39-2.736 3.662-2.5 5.607-2.652-.45-.213-.828-.545-1.257-.871l-.211-.149c-.313-.235-.584-.299-.89-.075-.547.599-1.442-.222-.894-.82zm34.497 9.72c-1.582 4.565-4.011 7.744-5.628 7.25-.649-.199-1.075-.959-1.274-2.101a.59.59 0 0 1-.016-.078c-.133-.982-1.082-1.228-1.082-1.228l-17.486-6.308c-.887-.301-.578-1.278.309-.979l17.417 5.908s.733.227.8-.445c.108-1.195.348-2.525.717-3.916.129-.422 1.627-.324 3.352.201 1.72.53 3.018 1.29 2.891 1.696zm-4.844-1.328c-.07.228.654.649 1.617.945.962.294 1.799.348 1.867.12.07-.229-.654-.649-1.617-.943-.961-.295-1.799-.35-1.867-.122zM66.012 49.052c1.463 1.222.475 2.396-.99 1.175-1.799-1.503-5.758.371-9.521 1.33l-.2.059c-1.225.333-2.004-.409-2.094-1.381-.089-.972.204-.841.716-.61.513.231.981-.205 1.001-.182.045-.033.092-.065.139-.097.83-.549 1.848-1.001 2.939-1.311a96.384 96.384 0 0 1-4.488.182c-.246.395-.605.883-.865 1.147-.312.319-.715.204-.92-.06.033.508-.654.93-1.08.429a5.3 5.3 0 0 1-.842-1.373l-.042-.138a94.114 94.114 0 0 1-5.078-.203c1.116.311 2.151.768 2.996 1.326.048.031.095.063.139.097.02-.023.49.412 1.001.182.512-.23.806-.361.717.61s-.87 1.714-2.096 1.381l-.198-.058c-3.764-.959-7.723-2.833-9.522-1.331-1.463 1.221-2.452.047-.99-1.175 1.054-.881 2.441-1.33 3.917-1.449-2.227-.317-4.399-.795-6.219-1.521l-.011 8.981c-.011.756-.734.951-1.127.306 0 0-.177-.293-.478-.726-.759-1.097-2.784-3.718-4.157-3.488-5.281.89-.012 12.178 5.125 11.535a.562.562 0 0 1 .658.434c.015.07.018.126.014.191 0 0-.051.887.024 2.213.281 5.061 2.039 11.752 8.533 11.752.1 0 .198-.002.295-.004l.045-.002.042-.002c1.171-.053 2.196-.319 3.021-.812.115-.068.226-.141.333-.218l.101-.076c.904-.692 1.499-1.714 1.676-3.085l-.115.021c-.795.156-1.026-1.013-.237-1.191.928-.213 2.106-.307 3.281-.301 1.175-.006 2.354.088 3.28.301.789.18.559 1.349-.236 1.191l-.114-.021c.248 1.928 1.328 3.166 2.921 3.768.26.1.533.182.82.245a8.07 8.07 0 0 0 1.787.188c2.956 0 4.931-1.389 6.23-3.374l7.246 2.61c.067.029.127.06.176.092 1.545 4.131 2.153 8.42-4.584 14.885-7.816 7.503-17.457 6.824-17.457 6.824s-9.641.679-17.458-6.824c-9.624-9.236-4.259-14.029-2.583-20.268.823-3.066.737-6.222.662-7.445l-.364-.094a4.24 4.24 0 0 1-.57-.209c-5.202-2.334-8.811-12.125-2.756-13.521 1.694-.39 2.573.706 2.959 1.07.114.108-.42-1.467-1.817-4.606-.193-.434.39-1.296 1.417-2.329-1.129-1.098-1.764-2.472-1.764-4.188 0-.746-2.456-3.005-2.996-3.604-4.569-5.063-.413-7.951 5.203-10 6.874-2.509 11.588-9.728 19.693-9.789 3.969.03 7.402 2 10.541 4.155 2.863 1.964 5.765 4.432 9.057 5.633 5.613 2.049 9.771 4.937 5.201 10-.539.599-2.994 2.857-2.994 3.604 0 1.529-.51 2.787-1.423 3.819 1.26 1.195 2.011 2.214 1.795 2.697-1.397 3.14-1.933 4.716-1.815 4.606.385-.364 1.264-1.46 2.957-1.07 5.571 1.284 2.961 9.676-1.543 12.818-.479.33-1.091.691-1.66.845l-.357.094c-.077 1.172-.182 4.39.658 7.513.175.651.391 1.289.625 1.916l-4.862-1.656.041-.112c.669-1.896.974-3.981 1.077-5.845.074-1.327.023-2.213.023-2.213a.63.63 0 0 1 .014-.192.562.562 0 0 1 .658-.433c5.139.642 10.406-10.646 5.125-11.535-1.373-.229-3.397 2.392-4.158 3.486-.299.434-.478.727-.478.727-.392.646-1.116.449-1.127-.307l-.012-8.98c-1.843.733-4.042 1.214-6.289 1.531 1.435.132 2.78.582 3.808 1.44zM64.6 36.802l-.106.017c-.617-.344-1.177-.659-1.595-.859-3.535-1.69-7.561-1.143-11.351-1.059-3.143-.07-6.332-.375-9.448.226-1.19.23-2.765 1.021-4.281 1.814l-.154-.021c-.953-.269-1.857-.709-2.869-.709-1.253 0-3.209.755-3.209 2.282 0 1.216 1.201 1.537 1.826 1.537 1.294 0 3.072-.964 4.636-1.844.401.037.8.051 1.193.051 4.087 0 8.146-1.051 12.281-1.119 3.86.054 7.664 1.008 11.494 1.008.408 0 .828-.017 1.246-.058 1.576.878 3.118 1.737 4.455 1.737.592 0 1.85-.294 1.85-1.526 0-1.503-1.946-2.184-3.158-2.184-1.001.001-1.875.435-2.81.707zM50.984 24.187l-3.26.141a.396.396 0 0 0-.697.256.396.396 0 0 0 .718.231l3.206.145c-.021 1.509-.137 5.526-1.932 5.209-.993-.228-1.74-.59-2.205-1.004l.606-.606-2.057-.319.318 2.057.667-.667c.483.62 1.795 1.516 2.956 1.855 1.586.468 2.032 1.054 2.133 1.245.102-.191.547-.777 2.131-1.245 1.162-.34 2.476-1.235 2.957-1.855l.668.667.318-2.057-2.058.319.606.606c-.472.421-1.234.788-2.25 1.015-1.729.201-1.843-3.733-1.861-5.222l3.17-.143a.395.395 0 1 0 .019-.487l-3.248-.141-.023-.388h.281l-.03-.242a1.87 1.87 0 1 0-1.364 0l-.028.242h.276l-.017.388zM32.653 41.261a.744.744 0 0 0-.527.729c0 .22.107.42.253.561.87.915 2.333 1.684 4.503 2.288 3.617 1.01 8.692 1.38 14.367 1.438h.426c5.675-.059 10.75-.429 14.368-1.438 2.168-.604 3.633-1.373 4.502-2.288a.793.793 0 0 0 .253-.561.744.744 0 0 0-.526-.729c-4.502-1.351-11.154-2.234-18.664-2.234h-.291c-7.509-.001-14.161.883-18.664 2.234zm19.385 6.977l-.353.003h-.447l-.158-.002c.184.281.396.593.492.706a.723.723 0 0 1 .207-.432l.259-.275zm13.931-10.621c.479-.165.967-.308 1.441-.308.474 0 1.941.319 1.941.97 0 .089-.113.312-.633.312-.68.001-1.706-.44-2.749-.974zm-3.967-.727c-2.705-.109-5.402-.615-8.118-.858 2.144-.087 4.306-.146 6.399.274.561.112 1.136.321 1.719.584zm-25.716.848c-1.192.608-2.237 1.077-2.873 1.077-.5 0-.611-.216-.611-.322 0-.7 1.472-1.067 1.994-1.067.491 0 .995.145 1.49.312zm4.009-.737c2.771-1.207 5.902-1.105 8.927-.973-2.988.263-5.952.851-8.927.973zm11.143-16.377a1.19 1.19 0 0 1 .595 2.223l-.021-.173h-1.146l-.021.173a1.19 1.19 0 0 1 .593-2.223zM30.962 9.471c.965-.179 2.257-.301 3.917-.232a3.5 3.5 0 0 1-.446-1.137c-1.445.224-2.674.732-3.471 1.369zm10.169 9.531c-.054-5.021 5.037-6.843 8.058-7.104a15.441 15.441 0 0 0-3.178-.242c-.56.013-.746-.564-.54-.928.24-.674.771-3.423-.224-5.495-.625-1.292-1.869-2.388-4.413-2.495-2.516-.102-3.818.918-4.485 2.324-.342.719-.529 1.565-.595 2.468.011.042.014.089.011.137-.09 1.713 1.271 2.39 2.625 2.796.667.2.461 1.093-.227.981-.45-.075-.88-.137-1.291-.187.252.292.535.54.84.716l.052.028c.527.292.197 1.087.066 1.483a.547.547 0 0 1-.145.319.556.556 0 0 1-.304.189c-2.176.996-2.651 2.842-2.651 5.079 0 1.234.453 2.486 1.255 3.622-.339.227-.679.451-1.027.667-.915-1.306-1.443-2.777-1.443-4.289 0-2.354.506-4.792 3.197-6.107l.047-.165c-.582-.423-1.083-1.018-1.462-1.688-1.706-.103-2.999.004-3.93.168-.507.088-1.454.303-1.932.58-.438.252-.803.03-.762-.474.2-2.467 3.932-4.185 5.899-4.297.095-.892.305-1.765.677-2.548.896-1.883 2.671-3.138 5.633-3.019 2.961.127 4.625 1.459 5.453 3.173.974 2.025.744 4.459.467 5.744 6.382.139 10.181 3.679 13.546 7.282.656.705 1.305 1.425 1.967 2.136-3.19-2.318-6.508-4.384-11.166-4.419-4.109.033-7.171 1.617-10.018 3.565zM39.969 6.669a1.081 1.081 0 0 0-.425-.129c-.804-.093-.667-1.302.139-1.208 1.616.185 2.009 1.549 1.827 2.482a1.12 1.12 0 1 1-1.541-1.145z"></path></g><!----></svg>